<mxfile host="app.diagrams.net" agent="Mozilla/5.0 (Windows NT 10.0; Win64; x64) AppleWebKit/537.36 (KHTML, like Gecko) Chrome/131.0.0.0 Safari/537.36" version="25.0.3">
  <diagram name="Page-1" id="CSnpGQzMtUrZoiWHQE6S">
    <mxGraphModel dx="1050" dy="522" grid="1" gridSize="10" guides="1" tooltips="1" connect="1" arrows="1" fold="1" page="1" pageScale="1" pageWidth="827" pageHeight="1169" math="0" shadow="0">
      <root>
        <mxCell id="0" />
        <mxCell id="1" parent="0" />
        <mxCell id="hWd1Pk0RT9BdvqmXm1Gd-3" value="" style="edgeStyle=orthogonalEdgeStyle;rounded=0;orthogonalLoop=1;jettySize=auto;html=1;" edge="1" parent="1" source="hWd1Pk0RT9BdvqmXm1Gd-1" target="hWd1Pk0RT9BdvqmXm1Gd-2">
          <mxGeometry relative="1" as="geometry" />
        </mxCell>
        <mxCell id="hWd1Pk0RT9BdvqmXm1Gd-1" value="start" style="ellipse;whiteSpace=wrap;html=1;" vertex="1" parent="1">
          <mxGeometry x="354" y="30" width="120" height="50" as="geometry" />
        </mxCell>
        <mxCell id="hWd1Pk0RT9BdvqmXm1Gd-6" value="" style="edgeStyle=orthogonalEdgeStyle;rounded=0;orthogonalLoop=1;jettySize=auto;html=1;exitX=0.5;exitY=1;exitDx=0;exitDy=0;" edge="1" parent="1" source="hWd1Pk0RT9BdvqmXm1Gd-11" target="hWd1Pk0RT9BdvqmXm1Gd-4">
          <mxGeometry relative="1" as="geometry">
            <mxPoint x="414" y="330" as="sourcePoint" />
          </mxGeometry>
        </mxCell>
        <mxCell id="hWd1Pk0RT9BdvqmXm1Gd-10" value="" style="edgeStyle=orthogonalEdgeStyle;rounded=0;orthogonalLoop=1;jettySize=auto;html=1;" edge="1" parent="1" source="hWd1Pk0RT9BdvqmXm1Gd-2" target="hWd1Pk0RT9BdvqmXm1Gd-9">
          <mxGeometry relative="1" as="geometry" />
        </mxCell>
        <mxCell id="hWd1Pk0RT9BdvqmXm1Gd-2" value="รับค่า num" style="shape=parallelogram;perimeter=parallelogramPerimeter;whiteSpace=wrap;html=1;fixedSize=1;" vertex="1" parent="1">
          <mxGeometry x="354" y="140" width="120" height="40" as="geometry" />
        </mxCell>
        <mxCell id="hWd1Pk0RT9BdvqmXm1Gd-8" value="" style="edgeStyle=orthogonalEdgeStyle;rounded=0;orthogonalLoop=1;jettySize=auto;html=1;" edge="1" parent="1" source="hWd1Pk0RT9BdvqmXm1Gd-4" target="hWd1Pk0RT9BdvqmXm1Gd-7">
          <mxGeometry relative="1" as="geometry" />
        </mxCell>
        <mxCell id="hWd1Pk0RT9BdvqmXm1Gd-4" value="" style="ellipse;whiteSpace=wrap;html=1;aspect=fixed;" vertex="1" parent="1">
          <mxGeometry x="399" y="360" width="30" height="30" as="geometry" />
        </mxCell>
        <mxCell id="hWd1Pk0RT9BdvqmXm1Gd-16" value="" style="edgeStyle=orthogonalEdgeStyle;rounded=0;orthogonalLoop=1;jettySize=auto;html=1;" edge="1" parent="1" source="hWd1Pk0RT9BdvqmXm1Gd-7" target="hWd1Pk0RT9BdvqmXm1Gd-13">
          <mxGeometry relative="1" as="geometry" />
        </mxCell>
        <mxCell id="hWd1Pk0RT9BdvqmXm1Gd-23" style="edgeStyle=orthogonalEdgeStyle;rounded=0;orthogonalLoop=1;jettySize=auto;html=1;exitX=0;exitY=0.5;exitDx=0;exitDy=0;entryX=0.5;entryY=0;entryDx=0;entryDy=0;" edge="1" parent="1" source="hWd1Pk0RT9BdvqmXm1Gd-7" target="hWd1Pk0RT9BdvqmXm1Gd-21">
          <mxGeometry relative="1" as="geometry" />
        </mxCell>
        <mxCell id="hWd1Pk0RT9BdvqmXm1Gd-7" value="วนครบ num ครั้ง" style="rhombus;whiteSpace=wrap;html=1;" vertex="1" parent="1">
          <mxGeometry x="331" y="450" width="166" height="80" as="geometry" />
        </mxCell>
        <mxCell id="hWd1Pk0RT9BdvqmXm1Gd-12" value="" style="edgeStyle=orthogonalEdgeStyle;rounded=0;orthogonalLoop=1;jettySize=auto;html=1;" edge="1" parent="1" source="hWd1Pk0RT9BdvqmXm1Gd-9" target="hWd1Pk0RT9BdvqmXm1Gd-11">
          <mxGeometry relative="1" as="geometry" />
        </mxCell>
        <mxCell id="hWd1Pk0RT9BdvqmXm1Gd-9" value="x = 0" style="shape=parallelogram;perimeter=parallelogramPerimeter;whiteSpace=wrap;html=1;fixedSize=1;" vertex="1" parent="1">
          <mxGeometry x="354" y="210" width="120" height="40" as="geometry" />
        </mxCell>
        <mxCell id="hWd1Pk0RT9BdvqmXm1Gd-11" value="sum = 0" style="shape=parallelogram;perimeter=parallelogramPerimeter;whiteSpace=wrap;html=1;fixedSize=1;" vertex="1" parent="1">
          <mxGeometry x="354" y="280" width="120" height="40" as="geometry" />
        </mxCell>
        <mxCell id="hWd1Pk0RT9BdvqmXm1Gd-15" value="" style="edgeStyle=orthogonalEdgeStyle;rounded=0;orthogonalLoop=1;jettySize=auto;html=1;" edge="1" parent="1" source="hWd1Pk0RT9BdvqmXm1Gd-13">
          <mxGeometry relative="1" as="geometry">
            <mxPoint x="414" y="630" as="targetPoint" />
          </mxGeometry>
        </mxCell>
        <mxCell id="hWd1Pk0RT9BdvqmXm1Gd-13" value="x = ( x * 10 ) + 9" style="rounded=0;whiteSpace=wrap;html=1;" vertex="1" parent="1">
          <mxGeometry x="338" y="565" width="151" height="40" as="geometry" />
        </mxCell>
        <mxCell id="hWd1Pk0RT9BdvqmXm1Gd-17" style="edgeStyle=orthogonalEdgeStyle;rounded=0;orthogonalLoop=1;jettySize=auto;html=1;exitX=0.5;exitY=1;exitDx=0;exitDy=0;entryX=1;entryY=0.5;entryDx=0;entryDy=0;" edge="1" parent="1" source="hWd1Pk0RT9BdvqmXm1Gd-14" target="hWd1Pk0RT9BdvqmXm1Gd-4">
          <mxGeometry relative="1" as="geometry">
            <Array as="points">
              <mxPoint x="414" y="770" />
              <mxPoint x="540" y="770" />
              <mxPoint x="540" y="375" />
            </Array>
          </mxGeometry>
        </mxCell>
        <mxCell id="hWd1Pk0RT9BdvqmXm1Gd-14" value="sum += x" style="rounded=0;whiteSpace=wrap;html=1;" vertex="1" parent="1">
          <mxGeometry x="338" y="690" width="151" height="40" as="geometry" />
        </mxCell>
        <mxCell id="hWd1Pk0RT9BdvqmXm1Gd-19" style="edgeStyle=orthogonalEdgeStyle;rounded=0;orthogonalLoop=1;jettySize=auto;html=1;exitX=0.5;exitY=1;exitDx=0;exitDy=0;entryX=0.5;entryY=0;entryDx=0;entryDy=0;" edge="1" parent="1" source="hWd1Pk0RT9BdvqmXm1Gd-18" target="hWd1Pk0RT9BdvqmXm1Gd-14">
          <mxGeometry relative="1" as="geometry" />
        </mxCell>
        <mxCell id="hWd1Pk0RT9BdvqmXm1Gd-18" value="แสดง x +&amp;nbsp;" style="shape=parallelogram;perimeter=parallelogramPerimeter;whiteSpace=wrap;html=1;fixedSize=1;" vertex="1" parent="1">
          <mxGeometry x="354" y="630" width="120" height="40" as="geometry" />
        </mxCell>
        <mxCell id="hWd1Pk0RT9BdvqmXm1Gd-24" style="edgeStyle=orthogonalEdgeStyle;rounded=0;orthogonalLoop=1;jettySize=auto;html=1;exitX=0.5;exitY=1;exitDx=0;exitDy=0;entryX=0.5;entryY=0;entryDx=0;entryDy=0;" edge="1" parent="1" source="hWd1Pk0RT9BdvqmXm1Gd-21" target="hWd1Pk0RT9BdvqmXm1Gd-22">
          <mxGeometry relative="1" as="geometry" />
        </mxCell>
        <mxCell id="hWd1Pk0RT9BdvqmXm1Gd-21" value="แสดง sum" style="shape=parallelogram;perimeter=parallelogramPerimeter;whiteSpace=wrap;html=1;fixedSize=1;" vertex="1" parent="1">
          <mxGeometry x="160" y="630" width="120" height="40" as="geometry" />
        </mxCell>
        <mxCell id="hWd1Pk0RT9BdvqmXm1Gd-22" value="end" style="ellipse;whiteSpace=wrap;html=1;" vertex="1" parent="1">
          <mxGeometry x="160" y="810" width="120" height="50" as="geometry" />
        </mxCell>
      </root>
    </mxGraphModel>
  </diagram>
</mxfile>
